<svg xmlns="http://www.w3.org/2000/svg" viewBox="0 0 512 512" width="1024" height="1024">
  <defs>
    <linearGradient id="bg" x1="0" y1="0" x2="0" y2="1">
      <stop offset="0" stop-color="#1B2A4E"/>
      <stop offset="1" stop-color="#0F1A33"/>
    </linearGradient>
  </defs>
  <rect width="512" height="512" rx="112" fill="url(#bg)"/>

  <path d="M 130 185 Q 130 256 256 256"
        stroke="#5A6E94" stroke-width="32" stroke-linecap="round" fill="none"/>
  <path d="M 382 185 Q 382 256 256 256"
        stroke="#5A6E94" stroke-width="32" stroke-linecap="round" fill="none"/>
  <line x1="256" y1="256" x2="256" y2="327"
        stroke="#5A6E94" stroke-width="32" stroke-linecap="round"/>

  <rect x="75" y="75" width="110" height="110" rx="15" fill="#0a0f1c" stroke="#FFD740" stroke-width="6"/>
  <circle cx="130" cy="130" r="26" fill="#FFD740"/>
  <rect x="327" y="75" width="110" height="110" rx="15" fill="#0a0f1c" stroke="#4FC3F7" stroke-width="6"/>
  <circle cx="382" cy="130" r="26" fill="#4FC3F7"/>
  <rect x="201" y="327" width="110" height="110" rx="15" fill="#0a0f1c" stroke="#69F0AE" stroke-width="6"/>
  <g stroke="#69F0AE" stroke-width="11" stroke-linecap="round">
    <line x1="256" y1="354" x2="256" y2="410"/>
    <line x1="228" y1="382" x2="284" y2="382"/>
  </g>

  <rect x="18" y="18" width="476" height="476" rx="94" fill="none" stroke="#FF5370" stroke-width="6"/>
  <rect x="3" y="3" width="506" height="506" rx="109" fill="none" stroke="#04081A" stroke-width="4"/>
</svg>
